Input #0, mov,mp4,m4a,3gp,3g2,mj2, from '/home/hbattu/projects/huberman-gpt/huberman-audio/mp3/tmpfdjkiwf7.mp4':
  Metadata:
    major_brand     : dash
    minor_version   : 0
    compatible_brands: iso6mp41
    creation_time   : 2022-05-08T23:32:04.000000Z
  Duration: 01:30:52.97, start: 0.000000, bitrate: 129 kb/s
    Stream #0:0(eng): Audio: aac (LC) (mp4a / 0x6134706D), 44100 Hz, stereo, fltp, 0 kb/s (default)
    Metadata:
      creation_time   : 2022-05-08T23:32:04.000000Z
      handler_name    : ISO Media file produced by Google Inc.
Stream mapping:
  Stream #0:0 -> #0:0 (aac (native) -> mp3 (libmp3lame))
Press [q] to stop, [?] for help
[graph_0_in_0_0 @ 0x5580baafc340] tb:1/44100 samplefmt:fltp samplerate:44100 chlayout:0x3
Output #0, mp3, to '../huberman-audio/mp3/RBK5KLA5Jjg.mp3':
  Metadata:
    major_brand     : dash
    minor_version   : 0
    compatible_brands: iso6mp41
    TSSE            : Lavf58.29.100
    Stream #0:0(eng): Audio: mp3 (libmp3lame), 44100 Hz, stereo, fltp, delay 1105 (default)
    Metadata:
      creation_time   : 2022-05-08T23:32:04.000000Z
      handler_name    : ISO Media file produced by Google Inc.
      encoder         : Lavc58.54.100 libmp3lame
No more output streams to write to, finishing.
size=   85204kB time=01:30:52.98 bitrate= 128.0kbits/s speed=92.4x    
[AVIOContext @ 0x5580ba9f0900] Statistics: 0 seeks, 115 writeouts
video:0kB audio:85203kB subtitle:0kB other streams:0kB global headers:0kB muxing overhead: 0.000397%
Input file #0 (/home/hbattu/projects/huberman-gpt/huberman-audio/mp3/tmpfdjkiwf7.mp4):
  Input stream #0:0 (audio): 234840 packets read (87247586 bytes); 234840 frames decoded (240476160 samples); 
  Total: 234840 packets (87247586 bytes) demuxed
Output file #0 (../huberman-audio/mp3/RBK5KLA5Jjg.mp3):
  Output stream #0:0 (audio): 208747 frames encoded (240476160 samples); 208748 packets muxed (87248143 bytes); 
  Total: 208748 packets (87248143 bytes) muxed
[AVIOContext @ 0x5580baa17480] Statistics: 2 seeks, 334 writeouts
[AVIOContext @ 0x5580ba9f9880] Statistics: 88251062 bytes read, 0 seeks
